<svg width="41" height="42" viewBox="0 0 41 42" fill="none" xmlns="http://www.w3.org/2000/svg">
<path d="M38.7222 18.6667C38.1181 18.6667 37.5387 18.9125 37.1116 19.3501C36.6844 19.7877 36.4444 20.3812 36.4444 21V35C36.4444 35.6188 36.2044 36.2123 35.7773 36.6499C35.3501 37.0875 34.7707 37.3333 34.1666 37.3333H6.83333C6.22922 37.3333 5.64986 37.0875 5.2227 36.6499C4.79553 36.2123 4.55555 35.6188 4.55555 35V7C4.55555 6.38116 4.79553 5.78767 5.2227 5.35008C5.64986 4.9125 6.22922 4.66667 6.83333 4.66667H20.5C21.1041 4.66667 21.6834 4.42083 22.1106 3.98325C22.5378 3.54566 22.7778 2.95217 22.7778 2.33333C22.7778 1.71449 22.5378 1.121 22.1106 0.683417C21.6834 0.245833 21.1041 0 20.5 0H6.83333C5.02102 0 3.28293 0.737498 2.00144 2.05025C0.719938 3.36301 0 5.14348 0 7V35C0 36.8565 0.719938 38.637 2.00144 39.9497C3.28293 41.2625 5.02102 42 6.83333 42H34.1666C35.9789 42 37.717 41.2625 38.9985 39.9497C40.28 38.637 41 36.8565 41 35V21C41 20.3812 40.76 19.7877 40.3328 19.3501C39.9057 18.9125 39.3263 18.6667 38.7222 18.6667Z" fill="#9AC7EE"/>
<path d="M29.6111 4.66667H33.21L18.8827 19.32C18.6693 19.5369 18.4998 19.795 18.3842 20.0793C18.2685 20.3637 18.209 20.6686 18.209 20.9767C18.209 21.2847 18.2685 21.5897 18.3842 21.874C18.4998 22.1583 18.6693 22.4164 18.8827 22.6333C19.0945 22.852 19.3464 23.0256 19.624 23.1441C19.9016 23.2625 20.1993 23.3235 20.5 23.3235C20.8007 23.3235 21.0984 23.2625 21.3759 23.1441C21.6535 23.0256 21.9054 22.852 22.1172 22.6333L36.4444 7.98V11.6667C36.4444 12.2855 36.6844 12.879 37.1115 13.3166C37.5387 13.7542 38.1181 14 38.7222 14C39.3263 14 39.9056 13.7542 40.3328 13.3166C40.76 12.879 40.9999 12.2855 40.9999 11.6667V2.33333C40.9999 1.71449 40.76 1.121 40.3328 0.683417C39.9056 0.245833 39.3263 0 38.7222 0H29.6111C29.007 0 28.4276 0.245833 28.0004 0.683417C27.5733 1.121 27.3333 1.71449 27.3333 2.33333C27.3333 2.95217 27.5733 3.54566 28.0004 3.98325C28.4276 4.42083 29.007 4.66667 29.6111 4.66667V4.66667Z" fill="#9AC7EE"/>
</svg>
