<svg width="45" height="44" viewBox="0 0 45 44" fill="none" xmlns="http://www.w3.org/2000/svg">
<path fill-rule="evenodd" clip-rule="evenodd" d="M22.1121 0C9.89893 0 0 9.89893 0 22.1121C0 31.8777 6.33677 40.1652 15.121 43.0973C16.2236 43.3033 16.6355 42.6127 16.6355 42.0311C16.6355 41.498 16.6113 39.7654 16.6113 37.9116C10.4563 39.2444 9.15985 35.3066 9.15985 35.3066C8.1542 32.7501 6.70026 32.0716 6.70026 32.0716C4.68897 30.7024 6.84565 30.7267 6.84565 30.7267C9.06292 30.8842 10.2382 33.0045 10.2382 33.0045C12.2131 36.3849 15.4118 35.4035 16.6719 34.8462C16.8657 33.4165 17.4473 32.4472 18.0774 31.8898C13.1703 31.3325 7.99669 29.4302 7.99669 20.961C7.99669 18.5499 8.85694 16.575 10.2745 15.0241C10.0443 14.4667 9.29312 12.2131 10.4926 9.17196C10.4926 9.17196 12.3464 8.57827 16.575 11.4377C18.3439 10.953 20.234 10.6986 22.1121 10.6986C23.9901 10.7107 25.8802 10.953 27.6492 11.4377C31.8656 8.57827 33.7194 9.17196 33.7194 9.17196C34.9189 12.2131 34.1677 14.4667 33.9375 15.0241C35.3551 16.575 36.2153 18.5499 36.2153 20.961C36.2153 29.4545 31.0417 31.3204 26.1225 31.8656C26.9101 32.5562 27.6249 33.9011 27.6249 35.9609C27.6249 38.9172 27.6007 41.3041 27.6007 42.0311C27.6007 42.6248 28.0005 43.3033 29.1152 43.0973C37.8995 40.1652 44.2241 31.8898 44.2241 22.1121C44.2241 9.89893 34.3252 0 22.1121 0Z" fill="#9AC7EE"/>
<path d="M8.37236 31.7444C8.3239 31.8535 8.15427 31.8898 7.99676 31.8171C7.83925 31.7444 7.74232 31.599 7.8029 31.49C7.85137 31.3809 8.02099 31.3446 8.1785 31.4173C8.33602 31.49 8.43295 31.6354 8.37236 31.7444Z" fill="#9AC7EE"/>
<path d="M9.26891 32.75C9.15986 32.847 8.95389 32.7985 8.82061 32.6531C8.67522 32.4956 8.65098 32.2896 8.76003 32.1927C8.86907 32.0958 9.06293 32.1442 9.20833 32.2896C9.35372 32.4471 9.37795 32.6531 9.26891 32.75Z" fill="#9AC7EE"/>
<path d="M10.1413 34.0223C10.008 34.1192 9.78991 34.0344 9.64451 33.8284C9.51124 33.6345 9.51124 33.3922 9.64451 33.2953C9.77779 33.1983 9.99588 33.2832 10.1413 33.477C10.2867 33.683 10.2867 33.9253 10.1413 34.0223Z" fill="#9AC7EE"/>
<path d="M11.3408 35.246C11.2196 35.3793 10.9652 35.3429 10.7713 35.1612C10.5775 34.9795 10.529 34.725 10.6502 34.5917C10.7713 34.4585 11.0379 34.4948 11.2196 34.6765C11.4135 34.8704 11.4619 35.1248 11.3408 35.246Z" fill="#9AC7EE"/>
<path d="M12.9885 35.9609C12.9401 36.1305 12.6856 36.2153 12.4312 36.1426C12.1767 36.0699 12.0192 35.864 12.0677 35.6943C12.1162 35.5247 12.3706 35.4399 12.625 35.5126C12.8674 35.5853 13.037 35.7913 12.9885 35.9609Z" fill="#9AC7EE"/>
<path d="M14.7939 36.0941C14.806 36.2758 14.5879 36.4334 14.3213 36.4334C14.0548 36.4455 13.8488 36.288 13.8367 36.1062C13.8367 35.9245 14.0426 35.767 14.3092 35.767C14.5758 35.767 14.7939 35.9124 14.7939 36.0941Z" fill="#9AC7EE"/>
<path d="M16.4781 35.8155C16.5145 35.9972 16.3327 36.179 16.0662 36.2274C15.8117 36.2759 15.5694 36.1669 15.5452 35.9851C15.5088 35.8034 15.7027 35.6216 15.9571 35.5732C16.2116 35.5247 16.4418 35.6337 16.4781 35.8155Z" fill="#9AC7EE"/>
</svg>
