<svg width="37" height="36" viewBox="0 0 37 36" fill="none" xmlns="http://www.w3.org/2000/svg">
<path d="M34.8335 16C34.292 16 33.7727 16.2107 33.3898 16.5858C33.0069 16.9609 32.7918 17.4696 32.7918 18V30C32.7918 30.5304 32.5767 31.0391 32.1938 31.4142C31.8109 31.7893 31.2916 32 30.7501 32H6.25012C5.70864 32 5.18933 31.7893 4.80645 31.4142C4.42356 31.0391 4.20846 30.5304 4.20846 30V6C4.20846 5.46957 4.42356 4.96086 4.80645 4.58579C5.18933 4.21071 5.70864 4 6.25012 4H18.5001C19.0416 4 19.5609 3.78929 19.9438 3.41421C20.3267 3.03914 20.5418 2.53043 20.5418 2C20.5418 1.46957 20.3267 0.960859 19.9438 0.585786C19.5609 0.210714 19.0416 0 18.5001 0H6.25012C4.62567 0 3.06775 0.632141 1.91909 1.75736C0.770433 2.88258 0.125122 4.4087 0.125122 6V30C0.125122 31.5913 0.770433 33.1174 1.91909 34.2426C3.06775 35.3679 4.62567 36 6.25012 36H30.7501C32.3746 36 33.9325 35.3679 35.0812 34.2426C36.2298 33.1174 36.8751 31.5913 36.8751 30V18C36.8751 17.4696 36.66 16.9609 36.2771 16.5858C35.8942 16.2107 35.3749 16 34.8335 16Z" fill="#9AC7EE"/>
<path d="M26.6668 4H29.8927L17.0506 16.56C16.8592 16.7459 16.7073 16.9671 16.6037 17.2108C16.5 17.4546 16.4467 17.716 16.4467 17.98C16.4467 18.244 16.5 18.5054 16.6037 18.7492C16.7073 18.9929 16.8592 19.2141 17.0506 19.4C17.2404 19.5875 17.4662 19.7362 17.715 19.8378C17.9638 19.9393 18.2306 19.9916 18.5002 19.9916C18.7697 19.9916 19.0365 19.9393 19.2853 19.8378C19.5341 19.7362 19.7599 19.5875 19.9497 19.4L32.7918 6.84V10C32.7918 10.5304 33.0069 11.0391 33.3898 11.4142C33.7727 11.7893 34.292 12 34.8335 12C35.375 12 35.8943 11.7893 36.2772 11.4142C36.6601 11.0391 36.8752 10.5304 36.8752 10V2C36.8752 1.46957 36.6601 0.960859 36.2772 0.585786C35.8943 0.210714 35.375 0 34.8335 0H26.6668C26.1253 0 25.606 0.210714 25.2232 0.585786C24.8403 0.960859 24.6252 1.46957 24.6252 2C24.6252 2.53043 24.8403 3.03914 25.2232 3.41421C25.606 3.78929 26.1253 4 26.6668 4V4Z" fill="#9AC7EE"/>
</svg>
